# Alias OBJ Model File
# Exported from SketchUp, (c) 2000-2012 Trimble Navigation Limited
# File units = millimeters

mtllib tunguska radar.mtl

g Mesh1 Group1 Model

usemtl Color_008
v 6151.76 2200.2 2262.77
vt -2.46491 6.35575
vn -1 3.81639e-16 -1.16715e-14
v 6151.76 2133.33 2249.47
vt -5.09755 6.87941
v 6151.76 2133.33 2598.94
vt -5.09755 -6.87941
v 6151.76 2200.2 2585.64
vt -2.46491 -6.35575
v 6151.76 2256.89 2547.76
vt -0.233069 -4.86448
v 6151.76 2294.77 2491.07
vt 1.2582 -2.63264
v 6151.76 2308.07 2424.21
vt 1.78186 -2.84217e-13
v 6151.76 2294.77 2357.34
vt 1.2582 2.63264
v 6151.76 2256.89 2300.65
vt -0.233069 4.86448
f 1/1/1 2/2/1 3/3/1 4/4/1 5/5/1 6/6/1 7/7/1 8/8/1 9/9/1 

v 6206.64 2133.33 2249.47
vt -6.34171 -10.9767
vn 1.16715e-14 -1.17216e-14 -1
vt -6.34171 -13.1374
vt -3.65749 -13.1374
vn 1.09291e-14 0.382683 -0.92388
v 6206.64 2200.2 2262.77
vt -3.65749 -10.9767
f 10/10/2 2/11/2 1/12/3 11/13/3 

v 6206.64 2066.46 2262.77
vn 1.0637e-14 -0.382683 -0.92388
v 6151.76 2066.46 2262.77
f 12/10/4 13/11/4 2/12/2 10/13/2 

v 6206.64 2009.77 2300.65
vt -5.58056 -10.9767
vn 7.9966e-15 -0.707107 -0.707107
v 6151.76 2009.77 2300.65
vt -5.58056 -13.1374
vt -2.89635 -13.1374
vt -2.89635 -10.9767
f 14/14/5 15/15/5 13/16/4 12/17/4 

v 6206.64 1971.9 2357.34
vt -4.17415 -10.9767
vn 4.12737e-15 -0.92388 -0.382683
v 6151.76 1971.9 2357.34
vt -4.17415 -13.1374
vt -1.48994 -13.1374
vt -1.48994 -10.9767
f 16/18/6 17/19/6 15/20/5 14/21/5 

v 6206.64 1958.59 2424.21
vt -2.33659 -10.9767
vn -3.81639e-16 -1 1.17216e-14
v 6151.76 1958.59 2424.21
vt -2.33659 -13.1374
vt 0.347624 -13.1374
vt 0.347624 -10.9767
f 18/22/7 19/23/7 17/24/6 16/25/6 

v 6206.64 1971.9 2491.07
vt -0.347624 -10.9767
vn -4.8056e-15 -0.92388 0.382683
v 6151.76 1971.9 2491.07
vt -0.347624 -13.1374
vt 2.33659 -13.1374
vt 2.33659 -10.9767
f 20/26/8 21/27/8 19/28/7 18/29/7 

v 6206.64 2009.77 2547.76
vt 1.48994 -10.9767
vn -8.50938e-15 -0.707107 0.707107
v 6151.76 2009.77 2547.76
vt 1.48994 -13.1374
vt 4.17415 -13.1374
vt 4.17415 -10.9767
f 22/30/9 23/31/9 21/32/8 20/33/8 

v 6206.64 2066.46 2585.64
vt 2.89635 -10.9767
vn -1.09291e-14 -0.382683 0.92388
v 6151.76 2066.46 2585.64
vt 2.89635 -13.1374
vt 5.58056 -13.1374
vt 5.58056 -10.9767
f 24/34/10 25/35/10 23/36/9 22/37/9 

v 6206.64 2133.33 2598.94
vt 3.65749 -10.9767
vn -1.16715e-14 1.17216e-14 1
vt 3.65749 -13.1374
vt 6.34171 -13.1374
vt 6.34171 -10.9767
f 26/38/11 3/39/11 25/40/10 24/41/10 

v 6206.64 2200.2 2585.64
vn -1.0637e-14 0.382683 0.92388
f 27/38/12 4/39/12 3/40/11 26/41/11 

v 6206.64 2256.89 2547.76
vn -7.96966e-15 0.707107 0.707107
f 28/34/13 5/35/13 4/36/12 27/37/12 

v 6206.64 2294.77 2491.07
vn -4.10043e-15 0.92388 0.382683
f 29/30/14 6/31/14 5/32/13 28/33/13 

v 6206.64 2308.07 2424.21
vn 3.81639e-16 1 -1.17216e-14
f 30/26/15 7/27/15 6/28/14 29/29/14 

v 6206.64 2294.77 2357.34
vn 4.8056e-15 0.92388 -0.382683
f 31/22/16 8/23/16 7/24/15 30/25/15 

v 6206.64 2256.89 2300.65
vn 8.50938e-15 0.707107 -0.707107
f 32/18/17 9/19/17 8/20/16 31/21/16 

f 11/14/3 1/15/3 9/16/17 32/17/17 

vt 0.233069 4.86448
vn 1 -3.81639e-16 1.16715e-14
v 6206.64 2224.78 2386.33
vt 1.49731 1.49127
vt 2.46491 6.35575
f 32/42/18 33/43/18 11/44/18

v 6206.64 2232.31 2424.21
vt 1.20067 -3.97904e-13
f 33/43/18 32/42/18 34/45/18

vt 0.233069 -4.86448
f 32/42/18 28/46/18 34/45/18

vt -1.2582 2.63264
f 31/47/18 28/46/18 32/42/18

vt -1.2582 -2.63264
f 31/47/18 29/48/18 28/46/18

vt -1.78186 -2.84217e-13
f 29/48/18 31/47/18 30/49/18

vt 2.46491 -6.35575
f 34/45/18 28/46/18 27/50/18

v 6206.64 2224.78 2462.08
vt 1.49731 -1.49127
f 34/45/18 27/50/18 35/51/18

v 6206.64 2203.32 2494.2
vt 2.34204 -2.75551
f 35/51/18 27/50/18 36/52/18

v 6206.64 2171.21 2515.65
vt 3.60628 -3.60024
f 36/52/18 27/50/18 37/53/18

vt 5.09755 -6.87941
f 37/53/18 27/50/18 26/54/18

v 6206.64 2133.33 2523.19
vt 5.09755 -3.89687
f 37/53/18 26/54/18 38/55/18

vt 7.73018 -6.35575
f 38/55/18 26/54/18 24/56/18

v 6206.64 2095.45 2515.65
vt 6.58882 -3.60024
f 38/55/18 24/56/18 39/57/18

v 6206.64 2063.34 2494.2
vt 7.85305 -2.75551
f 39/57/18 24/56/18 40/58/18

vt 9.96203 -4.86448
f 40/58/18 24/56/18 22/59/18

v 6206.64 2041.89 2462.08
vt 8.69779 -1.49127
f 40/58/18 22/59/18 41/60/18

v 6206.64 2034.35 2424.21
vt 8.99442 -3.97904e-13
f 41/60/18 22/59/18 42/61/18

vt 9.96203 4.86448
f 14/62/18 42/61/18 22/59/18

v 6206.64 2041.89 2386.33
vt 8.69779 1.49127
f 14/62/18 43/63/18 42/61/18

v 6206.64 2063.34 2354.22
vt 7.85305 2.75551
f 14/62/18 44/64/18 43/63/18

vt 7.73018 6.35575
f 12/65/18 44/64/18 14/62/18

v 6206.64 2095.45 2332.76
vt 6.58882 3.60024
f 12/65/18 45/66/18 44/64/18

vt 5.09755 6.87941
f 10/67/18 45/66/18 12/65/18

v 6206.64 2133.33 2325.22
vt 5.09755 3.89687
f 10/67/18 46/68/18 45/66/18

v 6206.64 2171.21 2332.76
vt 3.60628 3.60024
f 10/67/18 47/69/18 46/68/18

f 11/44/18 47/69/18 10/67/18

v 6206.64 2203.32 2354.22
vt 2.34204 2.75551
f 11/44/18 48/70/18 47/69/18

f 11/44/18 33/43/18 48/70/18

vt -3.59229 -10.9767
vn 8.52285e-15 0.707107 -0.707107
vt -2.0718 -10.9767
vn 4.81908e-15 0.92388 -0.382683
v 6424.94 2224.78 2386.33
vt -2.0718 -2.38226
v 6424.94 2203.32 2354.22
vt -3.59229 -2.38226
f 48/71/19 33/72/20 49/73/20 50/74/19 

vt -1.75472 -10.9767
vt -0.23424 -10.9767
vn -4.45032e-16 1 -7.123e-15
v 6424.94 2232.31 2424.21
vt -0.23424 -2.38226
vt -1.75472 -2.38226
f 33/75/20 34/76/21 51/77/21 49/78/20 

v 6424.94 2224.78 2462.08
vt 1.75472 -2.38226
vn -4.94057e-15 0.92388 0.382683
vt 0.23424 -2.38226
vt 0.23424 -10.9767
vt 1.75472 -10.9767
f 52/79/22 51/80/21 34/81/21 35/82/22 

usemtl Color_002
v 6424.94 2133.33 2523.19
vt -5.09755 -3.89687
vn -1 -1.24705e-14 -2.45196e-14
v 6424.94 2241.82 2523.19
vt -0.826348 -3.89687
v 6424.94 2237.24 2500.01
vt -1.00647 -2.98458
vt -1.20067 -4.28512e-13
vt -1.49731 -1.49127
v 6424.94 2203.32 2494.2
vt -2.34204 -2.75551
v 6424.94 2171.21 2515.65
vt -3.60628 -3.60024
f 53/83/23 54/84/23 55/85/23 51/86/23 52/87/23 56/88/23 57/89/23 

v 6819.14 2034.35 2523.19
vt 8.99442 13.1374
v 6819.14 2241.82 2523.19
vt 0.826348 13.1374
vt 0.826348 -2.38226
vt 5.09755 -2.38226
v 6424.94 2034.35 2523.19
vt 8.99442 -2.38226
f 58/90/11 59/91/11 54/92/11 53/93/11 60/94/11 

v 6819.14 2034.35 2325.22
vt 8.99442 3.89687
v 6819.14 2241.82 2325.22
vt 0.826348 3.89687
v 6819.14 2237.24 2348.4
vt 1.00647 2.98458
v 6819.14 2232.31 2424.21
v 6819.14 2237.24 2500.01
vt 1.00647 -2.98458
vt 0.826348 -3.89687
vt 8.99442 -3.89687
f 61/95/18 62/96/18 63/97/18 64/45/18 65/98/18 59/99/18 58/100/18 

v 6424.94 2133.33 2325.22
vt -5.09755 -2.38226
v 6424.94 2241.82 2325.22
vt -0.826348 -2.38226
vt -0.826348 13.1374
vt -8.99442 13.1374
v 6424.94 2034.35 2325.22
vt -8.99442 -2.38226
f 66/101/2 67/102/2 62/103/2 61/104/2 68/105/2 

vt -1.49731 1.49127
vn -1 -1.24705e-14 1.17665e-15
vt -1.20067 -3.67296e-13
v 6424.94 2237.24 2348.4
vt -1.00647 2.98458
vt -0.826348 3.89687
vt -5.09755 3.89687
v 6424.94 2171.21 2332.76
vt -3.60628 3.60024
vt -2.34204 2.75551
f 49/106/24 51/107/24 69/108/24 67/109/24 66/110/24 70/111/24 50/112/24 

vt 2.91293 13.1374
vn 2.49193e-15 -0.991568 -0.129589
vt -0.0779615 13.1374
vn 7.6068e-17 -1 1.40859e-14
vt -0.0779615 -2.38226
vt 2.91293 -2.38226
f 63/113/25 64/114/26 51/115/26 69/116/25 

v 6819.14 2322.14 2574.61
vt -2.33601 -5.92126
vn 1 -4.04126e-08 6.78096e-15
v 6819.14 2346.58 2646.62
vt -3.29809 -8.75651
v 6819.14 2380.14 2714.86
vt -4.61948 -11.4432
v 6819.14 2422.27 2778.18
vt -6.27789 -13.936
v 6819.14 2472.24 2835.5
vt -8.24535 -16.1928
v 6819.14 2401.31 2835.5
vt -5.45287 -16.1928
v 6819.14 2351.52 2778.13
vt -3.49256 -13.9339
v 6819.14 2309.58 2714.78
vt -1.84151 -11.4401
v 6819.14 2276.21 2646.54
vt -0.527554 -8.75324
v 6819.14 2251.96 2574.54
vt 0.427138 -5.91882
vt 1.20067 -4.62153e-13
v 6819.14 2251.96 2273.87
vt 0.427138 5.91882
v 6819.14 2276.21 2201.87
vt -0.527554 8.75324
v 6819.14 2309.58 2133.63
vt -1.84151 11.4401
v 6819.14 2351.52 2070.28
vt -3.49256 13.9339
v 6819.14 2401.31 2012.91
vt -5.45287 16.1928
v 6819.14 2472.24 2012.91
vt -8.24535 16.1928
v 6819.14 2422.27 2070.23
vt -6.27789 13.936
v 6819.14 2380.14 2133.55
vt -4.61948 11.4432
v 6819.14 2346.58 2201.79
vt -3.29809 8.75651
v 6819.14 2322.14 2273.81
vt -2.33601 5.92126
v 6819.14 2307.25 2348.38
vt -1.74945 2.98523
v 6819.14 2306.01 2366.8
vt -1.70064 2.26019
v 6819.14 2303.24 2424.21
vt -1.59181 -7.40555e-15
v 6819.14 2306.01 2481.61
vt -1.70064 -2.26019
v 6819.14 2307.25 2500.03
vt -1.74945 -2.98523
f 71/117/27 72/118/27 73/119/27 74/120/27 75/121/27 76/122/27 77/123/27 78/124/27 79/125/27 80/126/27 59/99/27 65/98/27 64/127/27 63/97/27 62/96/27 81/128/27 82/129/27 83/130/27 84/131/27 85/132/27 86/133/27 87/134/27 88/135/27 89/136/27 90/137/27 91/138/27 92/139/27 93/140/27 94/141/27 95/142/27 

v 6424.94 2346.58 2646.62
vt 9.35191 -2.38226
vn 2.29495e-14 0.924103 -0.382142
vt 9.35191 13.1374
vt 6.35787 13.1374
vn 1.00454e-14 0.965833 -0.259167
v 6424.94 2322.14 2574.61
vt 6.35787 -2.38226
f 96/143/28 72/144/28 71/145/29 97/146/29 

v 6424.94 2380.14 2714.86
vt 12.3072 -2.38226
vn 3.70678e-14 0.86679 -0.498674
vt 12.3072 13.1374
vt 9.31315 13.1374
vt 9.31315 -2.38226
f 98/147/30 73/148/30 72/149/28 96/150/28 

v 6424.94 2422.27 2778.18
vt 15.0802 -2.38226
vn 5.8293e-14 0.794858 -0.606795
vt 15.0802 13.1374
vt 12.0861 13.1374
vt 12.0861 -2.38226
f 99/151/31 74/152/31 73/153/30 98/154/30 

v 6424.94 2472.24 2835.5
vt 17.6241 -2.38226
vn 7.18499e-14 0.753781 -0.657126
vt 17.6241 13.1374
vt 14.63 13.1374
vt 14.63 -2.38226
f 100/155/32 75/156/32 74/157/31 99/158/31 

vt -8.24535 -2.38226
vn -6.31705e-14 1.87261e-13 1
v 6424.94 2401.31 2835.5
vt -5.45287 -2.38226
vt -5.45287 13.1374
vt -8.24535 13.1374
f 100/159/33 101/160/33 76/161/33 75/162/33 

v 6424.94 2351.52 2070.28
vt 3.49256 13.9339
vn -1 4.04126e-08 4.15004e-15
v 6424.94 2309.58 2133.63
vt 1.84151 11.4401
v 6424.94 2276.21 2201.87
vt 0.527554 8.75324
v 6424.94 2251.96 2273.87
vt -0.427139 5.91882
vt -1.20067 -3.60213e-13
v 6424.94 2251.96 2574.54
vt -0.427139 -5.91882
v 6424.94 2276.21 2646.54
vt 0.527554 -8.75324
v 6424.94 2309.58 2714.78
vt 1.84151 -11.4401
v 6424.94 2351.52 2778.13
vt 3.49256 -13.9339
vt 5.45287 -16.1928
vt 8.24535 -16.1928
vt 6.27789 -13.936
vt 4.61948 -11.4432
vt 3.29809 -8.75651
vt 2.33601 -5.92126
v 6424.94 2307.25 2500.03
vt 1.74945 -2.98523
v 6424.94 2306.01 2481.61
vt 1.70064 -2.26019
v 6424.94 2303.24 2424.21
vt 1.59181 9.45344e-14
v 6424.94 2306.01 2366.8
vt 1.70064 2.26019
v 6424.94 2307.25 2348.38
vt 1.74945 2.98523
v 6424.94 2322.14 2273.81
vt 2.33601 5.92126
v 6424.94 2346.58 2201.79
vt 3.29809 8.75651
v 6424.94 2380.14 2133.55
vt 4.61948 11.4432
v 6424.94 2422.27 2070.23
vt 6.27789 13.936
v 6424.94 2472.24 2012.91
vt 8.24535 16.1928
v 6424.94 2401.31 2012.91
vt 5.45287 16.1928
f 102/163/34 103/164/34 104/165/34 105/166/34 67/109/34 69/108/34 51/167/34 55/85/34 54/84/34 106/168/34 107/169/34 108/170/34 109/171/34 101/172/34 100/173/34 99/174/34 98/175/34 96/176/34 97/177/34 110/178/34 111/179/34 112/180/34 113/181/34 114/182/34 115/183/34 116/184/34 117/185/34 118/186/34 119/187/34 120/188/34 

vt 13.5465 13.1374
vn 6.75744e-15 -0.796222 -0.605004
vt 10.5556 13.1374
vn 5.46625e-15 -0.86791 -0.496721
vt 10.5556 -2.38226
vt 13.5465 -2.38226
f 84/189/35 83/190/36 103/191/36 102/192/35 

vt 11.086 13.1374
vt 8.09508 13.1374
vn 4.08288e-15 -0.924961 -0.380062
vt 8.09508 -2.38226
vt 11.086 -2.38226
f 83/193/36 82/194/37 104/195/37 103/196/36 

vt 8.46373 13.1374
vt 5.47284 13.1374
vn 3.08056e-15 -0.966413 -0.256992
vt 5.47284 -2.38226
vt 8.46373 -2.38226
f 82/197/37 81/198/38 105/199/38 104/200/37 

vt 5.72398 13.1374
vt 3.66301 13.1374
vn 2.78425e-15 -0.981061 -0.193699
vt 3.66301 -2.38226
vt 5.72398 -2.38226
f 81/201/38 62/202/39 67/203/39 105/204/38 

vt 2.7331 -2.38226
vn 3.68284e-15 -0.981061 -0.193699
vt 2.7331 13.1374
f 69/205/25 67/203/40 62/202/40 63/206/25 

vt 15.8037 13.1374
vn 7.36158e-15 -0.755258 -0.655428
vt 12.8128 13.1374
vt 12.8128 -2.38226
vt 15.8037 -2.38226
f 85/207/41 84/208/35 102/209/35 120/210/41 

vt 8.24535 13.1374
vn 3.02065e-14 -4.477e-14 -1
vt 5.45287 13.1374
vt 5.45287 -2.38226
vt 8.24535 -2.38226
f 86/211/42 85/212/42 120/213/42 119/214/42 

vt -14.63 -2.38226
vn -2.82279e-14 0.794858 0.606795
vt -14.63 13.1374
vt -17.6241 13.1374
vn -3.24114e-14 0.753781 0.657126
vt -17.6241 -2.38226
f 118/215/43 87/216/43 86/217/44 119/218/44 

vt -12.0861 -2.38226
vn -1.40733e-14 0.86679 0.498674
vt -12.0861 13.1374
vt -15.0802 13.1374
vt -15.0802 -2.38226
f 117/219/45 88/220/45 87/221/43 118/222/43 

vt -9.31315 -2.38226
vn -2.80046e-15 0.924103 0.382142
vt -9.31315 13.1374
vt -12.3072 13.1374
vt -12.3072 -2.38226
f 116/223/46 89/224/46 88/225/45 117/226/45 

vt -6.35787 -2.38226
vn -1.07496e-15 0.965833 0.259167
vt -6.35787 13.1374
vt -9.35191 13.1374
vt -9.35191 -2.38226
f 115/227/47 90/228/47 89/229/46 116/230/46 

vt -3.27012 -2.38226
vn 8.90581e-16 0.991274 0.13182
vt -3.27012 13.1374
vt -6.26416 13.1374
vt -6.26416 -2.38226
f 114/231/48 91/232/48 90/233/47 115/234/47 

vt -2.36933 -2.38226
vn 2.49566e-15 0.997741 0.0671772
v 6483.93 2306.01 2366.8
vt -2.36933 -0.0597057
vn -2.9935e-15 0.998338 0.0576388
v 6760.15 2306.01 2366.8
vt -2.36933 10.8149
vt -2.36933 13.1374
vt -3.09601 13.1374
vt -3.09601 -2.38226
f 113/235/49 121/236/50 122/237/50 92/238/49 91/239/48 114/240/48 

v 6483.93 2357.74 2366.8
vt 3.73754 -0.0597057
vn -1.28031e-14 6.34058e-15 -1
vt 1.70064 -0.0597057
vt 1.70064 -2.38226
v 6424.94 2357.74 2366.8
vt 3.73754 -2.38226
f 123/241/51 121/242/51 113/243/51 124/244/51 

v 6483.93 2306.01 2481.61
vn 1 -3.71565e-14 8.52776e-15
v 6483.93 2303.24 2424.21
vt -1.59181 5.70311e-14
vt -3.73754 2.26019
v 6483.93 2357.74 2481.61
vt -3.73754 -2.26019
f 125/141/52 126/245/52 121/139/52 123/246/52 127/247/52 

vt 0.0765582 -2.38226
vn 1.44989e-14 1 -2.65937e-15
vt 2.33936 -2.38226
vn 1.44564e-14 0.998843 -0.0480952
vt 2.33936 -0.0597057
vt 0.0765582 -0.0597057
f 112/248/53 111/249/54 125/250/54 126/251/53 

vn -1 -3.19338e-13 -1.16715e-14
vt 1.59181 5.68434e-14
v 6424.94 2357.74 2481.61
vt 3.73754 -2.26019
vt 3.73754 2.26019
f 113/181/55 112/252/55 111/179/55 128/253/55 124/254/55 

vt -0.0765582 -2.38226
vt -0.0765582 -0.0597057
vt -2.33936 -0.0597057
vn 1.45078e-14 0.998843 0.0480952
vt -2.33936 -2.38226
f 112/255/53 126/256/53 121/257/56 113/258/56 

vn -7.79316e-15 1 -7.10758e-16
v 6760.15 2303.24 2424.21
vt -0.0765582 10.8149
vt -2.33936 10.8149
f 126/256/57 129/259/57 122/260/50 121/257/50 

vn -7.18128e-15 0.998338 -0.0576388
v 6760.15 2306.01 2481.61
vt 2.33936 10.8149
vt 0.0765582 10.8149
f 126/251/57 125/250/58 130/261/58 129/262/57 

vt 2.36933 -2.38226
vn -7.27601e-15 0.997741 -0.0671772
vt 3.09601 -2.38226
vn -1.77404e-15 0.991274 -0.13182
vt 3.09601 13.1374
vt 2.36933 13.1374
vt 2.36933 10.8149
vt 2.36933 -0.0597057
f 111/263/59 110/264/60 95/265/60 94/266/59 130/267/58 125/268/58 

vt 6.26416 -2.38226
vt 6.26416 13.1374
vt 3.27012 13.1374
vt 3.27012 -2.38226
f 97/269/29 71/270/29 95/271/60 110/272/60 

vn 1.44989e-14 1 -2.66285e-15
vn 1.44545e-14 0.998843 -0.0480952
vt 2.33936 13.1374
vt 0.0765582 13.1374
f 129/262/61 130/261/62 94/273/62 93/274/61 

vn -1 -4.55721e-14 -1.16715e-14
v 6760.15 2357.74 2481.61
v 6760.15 2357.74 2366.8
f 122/181/63 129/252/63 130/179/63 131/253/63 132/254/63 

vt -0.0765582 13.1374
vt -2.33936 13.1374
vn 1.45098e-14 0.998843 0.0480952
f 129/259/61 93/275/61 92/276/64 122/260/64 

vn 1 -9.77991e-15 8.52776e-15
vt -1.59181 1.55428e-14
v 6819.14 2357.74 2366.8
v 6819.14 2357.74 2481.61
f 94/141/65 93/277/65 92/139/65 133/246/65 134/247/65 

vt 3.73754 13.1374
vt 1.70064 13.1374
vt 1.70064 10.8149
vt 3.73754 10.8149
f 133/278/51 92/279/51 122/280/51 132/281/51 

vt 3.58034 13.1374
vn 1.29518e-14 0.0659507 -0.997823
vt 3.58034 10.8149
v 6770.52 2567.02 2380.63
vt 11.8377 11.2233
v 6808.76 2567.02 2380.63
vt 11.8377 12.729
f 133/282/66 132/283/66 135/284/66 136/285/66 

v 6770.52 2567.02 2467.78
vt 1.71561 12.5179
vn -0.998774 0.0495101 -1.18768e-14
v 6770.52 2567.02 2445.99
vt 0.857803 12.5179
v 6769.41 2544.7 2445.99
vt 0.857803 11.6379
v 6769.41 2544.7 2402.42
vt -0.857803 11.6379
v 6770.52 2567.02 2402.42
vt -0.857803 12.5179
vt -1.71561 12.5179
vt -2.26019 4.2684
vt 2.26019 4.2684
f 137/286/67 138/287/67 139/288/67 140/289/67 141/290/67 135/291/67 132/292/67 131/293/67 

vt -1.71561 12.729
vn 4.2233e-14 1 -4.43664e-15
vt -1.71561 11.2233
vt -0.857803 11.2233
vt 0.857803 11.2233
vt 1.71561 11.2233
v 6808.76 2567.02 2467.78
vt 1.71561 12.729
f 136/294/68 135/295/68 141/296/68 138/297/68 137/298/68 142/299/68 

v 6701.37 2567.02 2402.42
vt -0.857803 8.50087
vn -2.03962e-14 1 -4.43664e-15
v 6542.71 2567.02 2402.42
vt -0.857803 2.2543
v 6473.56 2567.02 2402.42
vt -0.857803 -0.468142
v 6473.56 2567.02 2445.99
vt 0.857803 -0.468142
v 6542.71 2567.02 2445.99
vt 0.857803 2.2543
v 6701.37 2567.02 2445.99
vt 0.857803 8.50087
f 143/300/69 144/301/69 145/302/69 146/303/69 147/304/69 148/305/69 138/297/69 141/296/69 

usemtl _Color_002_1
v 6701.37 2521.96 2367.26
vt 6.66499 8.50087
vn -1.84803e-14 0.615131 -0.788425
v 6542.71 2521.96 2367.26
vt 6.66499 2.2543
vt 8.91527 2.2543
vt 8.91527 8.50087
f 149/306/70 150/307/70 144/308/70 143/309/70 

vt 10.2028 2.2543
vn 1.16715e-14 -2.15662e-14 -1
vt 10.2028 8.50087
v 6701.37 2502.5 2367.26
vt 9.43656 8.50087
v 6542.71 2502.5 2367.26
vt 9.43656 2.2543
f 150/310/71 149/311/71 151/312/71 152/313/71 

v 6701.37 2502.5 2481.15
vt -9.43656 -2.24202
vn 1 2.19667e-14 6.4858e-15
vt -9.43656 2.24202
vt -10.2028 2.24202
vt -11.977 0.857803
v 6701.37 2544.7 2402.42
vt -11.098 0.857803
v 6701.37 2544.7 2445.99
vt -11.098 -0.857803
vt -11.977 -0.857803
v 6701.37 2521.96 2481.15
vt -10.2028 -2.24202
f 153/314/72 151/315/72 149/316/72 143/317/72 154/318/72 155/319/72 148/320/72 156/321/72 

v 6542.71 2502.5 2481.15
vt -2.24202 2.2543
vn 2.99753e-14 -1 4.43664e-15
vt 2.24202 2.2543
vt 2.24202 8.50087
vt -2.24202 8.50087
f 157/322/73 152/323/73 151/324/73 153/325/73 

vt 9.43656 2.24202
vn -1 -3.31634e-14 -6.14244e-15
vt 9.43656 -2.24202
v 6542.71 2521.96 2481.15
vt 10.2028 -2.24202
vt 11.977 -0.857803
v 6542.71 2544.7 2445.99
vt 11.098 -0.857803
v 6542.71 2544.7 2402.42
vt 11.098 0.857803
vt 11.977 0.857803
vt 10.2028 2.24202
f 152/326/74 157/327/74 158/328/74 147/329/74 159/330/74 160/331/74 144/332/74 150/333/74 

vt -10.2028 8.50087
vn -1.16715e-14 2.15662e-14 1
vt -10.2028 2.2543
vt -9.43656 2.2543
vt -9.43656 8.50087
f 156/334/75 158/335/75 157/336/75 153/337/75 

vt -6.66499 2.2543
vn -2.55673e-14 0.615131 0.788425
vt -6.66499 8.50087
vt -8.91527 8.50087
vt -8.91527 2.2543
f 158/338/76 156/339/76 148/340/76 147/341/76 

vt -11.977 8.50087
vt -11.977 2.2543
vt -11.098 2.2543
vt -11.098 8.50087
f 148/342/75 147/343/75 159/344/75 155/345/75 

usemtl Color_002
v 6474.66 2544.7 2445.99
vt -11.098 -0.424569
vt -11.977 -0.468142
f 161/346/75 159/344/75 147/343/75 146/347/75 

v 6474.66 2544.7 2402.42
vt 0.857803 -0.424569
vn -8.1786e-15 -1 4.43664e-15
vt -0.857803 -0.424569
f 162/348/77 160/304/77 159/301/77 161/349/77 

vt 11.977 -0.468142
vn 3.28879e-14 4.36289e-14 -1
vt 11.977 2.2543
vt 11.098 2.2543
vt 11.098 -0.424569
f 145/350/78 144/351/78 160/352/78 162/353/78 

usemtl _Color_002_1
vt 11.098 8.50087
vn 2.57154e-15 4.3103e-14 -1
vt 11.977 8.50087
f 154/354/79 160/352/79 144/351/79 143/355/79 

f 155/300/73 159/301/73 160/304/73 154/305/73 

usemtl Color_002
vt -0.857803 11.1797
vn 2.32257e-14 -1 4.43664e-15
vt 0.857803 11.1797
f 139/356/80 155/300/80 154/305/80 140/357/80 

vt -11.977 11.2233
vt -11.098 11.1797
f 138/358/75 148/342/75 155/345/75 139/359/75 

f 138/287/67 141/290/67 140/289/67 139/288/67 

vt 11.098 11.1797
vt 11.977 11.2233
f 140/360/71 154/354/71 143/355/71 141/361/71 

vt -0.857803 -11.9854
vn 0.998774 0.0495101 1.14375e-14
vt 0.857803 -11.9854
vt 0.857803 -11.1054
vt -0.857803 -11.1054
f 145/362/81 146/363/81 161/364/81 162/365/81 

v 6473.56 2567.02 2380.63
vt -1.71561 -0.468142
vn 7.71542e-14 1 -4.43664e-15
v 6435.31 2567.02 2380.63
vt -1.71561 -1.97382
v 6435.31 2567.02 2467.78
vt 1.71561 -1.97382
v 6473.56 2567.02 2467.78
vt 1.71561 -0.468142
f 163/366/82 164/367/82 165/368/82 166/369/82 146/303/82 145/302/82 

vt 3.58034 -0.0597057
vt 3.58034 -2.38226
vt 11.8377 -1.97382
vt 11.8377 -0.468142
f 123/370/66 124/371/66 164/372/66 163/373/66 

vt -2.26019 3.61501
vt 2.26019 3.61501
vt 1.71561 11.8645
vt -1.71561 11.8645
f 124/374/67 128/375/67 165/376/67 164/377/67 

vt -3.58034 -2.38226
vn -1.03404e-14 0.0659507 0.997823
vt -3.58034 -0.0597057
vt -11.8377 -0.468142
vt -11.8377 -1.97382
f 128/378/83 127/379/83 166/380/83 165/381/83 

vt -3.73754 -2.38226
vt -1.70064 -2.38226
vt -1.70064 -0.0597057
vt -3.73754 -0.0597057
f 128/382/75 111/383/75 125/384/75 127/385/75 

vt -1.71561 -11.9854
vt 1.71561 -11.9854
vt 2.26019 -3.73591
vt -2.26019 -3.73591
f 163/386/81 145/362/81 162/365/81 161/364/81 146/363/81 166/387/81 127/388/81 123/389/81 

vt -3.58034 10.8149
vt -3.58034 13.1374
vt -11.8377 12.729
vt -11.8377 11.2233
f 131/390/83 134/391/83 142/392/83 137/393/83 

vt -3.73754 10.8149
vt -1.70064 10.8149
vt -1.70064 13.1374
vt -3.73754 13.1374
f 131/394/75 130/395/75 94/396/75 134/397/75 

vt 2.26019 -3.08252
vt -2.26019 -3.08252
vt -1.71561 -11.3321
vt 1.71561 -11.3321
f 134/398/81 133/399/81 136/400/81 142/401/81 

vt 0.0779615 13.1374
vt -2.91293 13.1374
vn -1.89112e-15 -0.991568 0.129589
vt -2.91293 -2.38226
vt 0.0779615 -2.38226
f 64/402/26 65/403/84 55/404/84 51/405/26 

vt -2.7331 13.1374
vt -3.66301 13.1374
vn -2.63557e-15 -0.981061 0.193699
vt -3.66301 -2.38226
vt -2.7331 -2.38226
f 65/406/84 59/407/85 54/408/85 55/409/84 

vt -5.72398 -2.38226
vn -3.36849e-15 -0.966413 0.256992
vn -2.63554e-15 -0.981061 0.193699
vt -5.72398 13.1374
f 106/410/86 54/408/87 59/407/87 80/411/86 

vt -5.47284 13.1374
vt -8.46373 13.1374
vn -4.78889e-15 -0.924961 0.380062
vt -8.46373 -2.38226
vt -5.47284 -2.38226
f 80/412/86 79/413/88 107/414/88 106/415/86 

vt -8.09508 13.1374
vt -11.086 13.1374
vn -6.12871e-15 -0.86791 0.496721
vt -11.086 -2.38226
vt -8.09508 -2.38226
f 79/416/88 78/417/89 108/418/89 107/419/88 

vt -10.5556 13.1374
vt -13.5465 13.1374
vn -7.36517e-15 -0.796222 0.605004
vt -13.5465 -2.38226
vt -10.5556 -2.38226
f 78/420/89 77/421/90 109/422/90 108/423/89 

vt -12.8128 13.1374
vt -15.8037 13.1374
vn -7.93805e-15 -0.755258 0.655428
vt -15.8037 -2.38226
vt -12.8128 -2.38226
f 77/424/90 76/425/91 101/426/91 109/427/90 

usemtl Color_008
vt -5.75984 -10.9767
vt -4.23936 -10.9767
vt -4.23936 -2.38226
vt -5.75984 -2.38226
f 46/428/2 47/429/3 70/430/3 66/431/2 

vt -4.9987 -10.9767
vt -3.47821 -10.9767
vt -3.47821 -2.38226
vt -4.9987 -2.38226
f 47/432/3 48/433/19 50/434/19 70/435/3 

v 6424.94 2095.45 2332.76
f 45/428/4 46/429/2 66/430/2 167/431/4 

usemtl Color_002
vt -8.99442 3.89687
v 6424.94 2034.35 2424.21
vt -8.99442 -3.97904e-13
v 6424.94 2041.89 2386.33
vt -8.69779 1.49127
v 6424.94 2063.34 2354.22
vt -7.85305 2.75551
vt -6.58882 3.60024
f 68/436/1 168/437/1 169/438/1 170/439/1 167/440/1 66/110/1 

vt -3.89687 -2.38226
vt -3.97904e-13 -2.38226
vt 3.89687 -2.38226
vt 3.89687 13.1374
vt -3.89687 13.1374
f 60/441/7 168/442/7 68/443/7 61/444/7 58/445/7 

vt -8.99442 -3.89687
v 6424.94 2095.45 2515.65
vt -6.58882 -3.60024
v 6424.94 2063.34 2494.2
vt -7.85305 -2.75551
v 6424.94 2041.89 2462.08
vt -8.69779 -1.49127
f 60/446/1 53/83/1 171/447/1 172/448/1 173/449/1 168/437/1 

usemtl Color_008
vt 5.75984 -2.38226
vt 4.23936 -2.38226
vt 4.23936 -10.9767
vt 5.75984 -10.9767
f 171/450/10 53/451/11 38/452/11 39/453/10 

f 53/450/11 57/451/12 37/452/12 38/453/11 

vt 4.9987 -2.38226
vt 3.47821 -2.38226
vn -7.98313e-15 0.707107 0.707107
vt 3.47821 -10.9767
vt 4.9987 -10.9767
f 57/454/12 56/455/92 36/456/92 37/457/12 

vt 3.59229 -2.38226
vt 2.0718 -2.38226
vt 2.0718 -10.9767
vt 3.59229 -10.9767
f 56/458/92 52/459/22 35/460/22 36/461/92 

vn -8.52285e-15 -0.707107 0.707107
f 172/454/93 171/455/10 39/456/10 40/457/93 

vn -4.81908e-15 -0.92388 0.382683
f 173/458/94 172/459/93 40/460/93 41/461/94 

f 42/82/7 168/79/7 173/80/94 41/81/94 

vn 4.1139e-15 -0.92388 -0.382683
f 43/76/95 169/77/95 168/78/7 42/75/7 

vn 7.98313e-15 -0.707107 -0.707107
f 169/74/95 43/71/95 44/72/96 170/73/96 

f 44/432/96 45/433/4 167/434/4 170/435/96 

vt 11.4533 -2.63264
f 14/62/18 22/59/18 20/462/18

vt 11.4533 2.63264
f 14/62/18 20/462/18 16/463/18

vt 11.977 -3.97904e-13
f 16/463/18 20/462/18 18/464/18

vt -7.73018 -6.35575
vt -7.73018 6.35575
vt -9.96203 4.86448
vt -11.4533 2.63264
vt -11.977 -3.97904e-13
vt -11.4533 -2.63264
vt -9.96203 -4.86448
f 25/465/1 3/3/1 2/2/1 13/466/1 15/467/1 17/468/1 19/469/1 21/470/1 23/471/1 

