# Blender v2.93.6 OBJ File: 'untitled.blend'
# www.blender.org
o GraveStone4_Cube.088
v -0.366619 -0.000194 0.778728
v -0.366619 -0.000194 -0.778728
v 0.366619 -0.000194 0.778728
v 0.366619 -0.000194 -0.778728
v -0.366619 0.143772 -0.778728
v -0.347179 0.163099 -0.737437
v -0.347179 0.163099 0.737437
v -0.366619 0.143772 0.778728
v 0.366619 0.143772 -0.778728
v 0.347179 0.163099 -0.737437
v 0.366619 0.143772 0.778728
v 0.347179 0.163099 0.737437
v -0.270738 0.262799 -0.575071
v -0.245260 0.278007 -0.520953
v -0.245260 0.278007 0.520953
v -0.270738 0.262799 0.575071
v 0.270738 0.262799 -0.575071
v 0.245260 0.278007 -0.520953
v 0.270738 0.262799 0.575071
v 0.245260 0.278007 0.520953
v -0.285389 0.173171 0.606189
v -0.281041 0.179954 0.596954
v -0.281041 0.179954 -0.596954
v -0.285389 0.173171 -0.606189
v 0.281041 0.179954 0.596954
v 0.285389 0.173171 0.606189
v 0.281041 0.179954 -0.596954
v 0.285389 0.173171 -0.606189
vt 0.059961 0.390933
vt 0.213456 0.390902
vt 0.213462 0.421039
vt 0.059967 0.421071
vt 0.211727 0.337607
vt 0.194250 0.333030
vt 0.194201 0.092261
vt 0.211676 0.087677
vt 0.061616 0.087708
vt 0.079093 0.092286
vt 0.079142 0.333054
vt 0.061667 0.337639
vt 0.213382 0.034382
vt 0.059887 0.034414
vt 0.059881 0.004276
vt 0.213376 0.004245
vt 0.077867 0.351431
vt 0.080020 0.333493
vt 0.193372 0.333469
vt 0.195533 0.351407
vt 0.038140 0.049239
vt 0.038140 0.379304
vt 0.007630 0.379304
vt 0.007630 0.049239
vt 0.196444 0.353805
vt 0.209384 0.381358
vt 0.064028 0.381389
vt 0.076958 0.353830
vt 0.235203 0.376077
vt 0.235203 0.046011
vt 0.265713 0.046011
vt 0.265713 0.376077
vt 0.085352 0.321724
vt 0.085306 0.103613
vt 0.187991 0.103592
vt 0.188036 0.321703
vt 0.076899 0.071510
vt 0.063959 0.043957
vt 0.209315 0.043927
vt 0.196385 0.071486
vt 0.216126 0.082576
vt 0.229394 0.054762
vt 0.229391 0.367322
vt 0.216123 0.339507
vt 0.043949 0.370554
vt 0.043952 0.057993
vt 0.195476 0.073885
vt 0.193323 0.091823
vt 0.079970 0.091846
vt 0.077810 0.073909
vt 0.057217 0.342739
vt 0.057220 0.085809
vt 0.446405 0.998018
vt 0.446405 0.965583
vt 0.515299 0.965583
vt 0.515299 0.998018
vn -0.6160 0.4574 -0.6414
vn 0.6160 0.4574 -0.6414
vn 0.0000 0.0000 -1.0000
vn 0.6187 0.6287 -0.4712
vn 0.5772 0.6107 -0.5421
vn 0.5772 0.6107 0.5421
vn 0.6187 0.6287 0.4712
vn -0.6187 0.6287 0.4712
vn -0.5772 0.6107 0.5421
vn -0.5772 0.6107 -0.5421
vn -0.6187 0.6287 -0.4712
vn 0.6160 0.4574 0.6414
vn -0.6160 0.4574 0.6414
vn 0.0000 0.0000 1.0000
vn -1.0000 0.0000 0.0000
vn 0.1680 0.9757 -0.1407
vn 0.3361 0.9271 -0.1657
vn -0.3361 0.9271 -0.1657
vn -0.1680 0.9757 -0.1407
vn 1.0000 0.0000 0.0000
vn -0.2278 0.9695 -0.0909
vn -0.2278 0.9695 0.0909
vn 0.2278 0.9695 0.0909
vn 0.2278 0.9695 -0.0909
vn -0.1680 0.9757 0.1407
vn -0.3361 0.9271 0.1657
vn 0.3361 0.9271 0.1657
vn 0.1680 0.9757 0.1407
vn 0.0000 -1.0000 0.0000
s 1
f 5/1/1 9/2/2 4/3/3 2/4/3
f 27/5/4 17/6/5 19/7/6 25/8/7
f 22/9/8 16/10/9 13/11/10 23/12/11
f 11/13/12 8/14/13 1/15/14 3/16/14
f 23/17/11 13/18/10 17/19/5 27/20/4
f 8/21/13 5/22/1 2/23/15 1/24/15
f 28/25/16 10/26/17 6/27/18 24/28/19
f 9/29/2 11/30/12 3/31/20 4/32/20
f 14/33/21 15/34/22 20/35/23 18/36/24
f 21/37/25 7/38/26 12/39/27 26/40/28
f 26/41/28 12/42/27 10/43/17 28/44/16
f 10/26/17 9/2/2 5/1/1 6/27/18
f 6/45/18 5/22/1 8/21/13 7/46/26
f 7/38/26 8/14/13 11/13/12 12/39/27
f 12/42/27 11/30/12 9/29/2 10/43/17
f 18/36/24 17/19/5 13/18/10 14/33/21
f 14/33/21 13/11/10 16/10/9 15/34/22
f 25/47/7 19/48/6 16/49/9 22/50/8
f 15/34/22 16/49/9 19/48/6 20/35/23
f 20/35/23 19/7/6 17/6/5 18/36/24
f 28/25/16 24/28/19 23/17/11 27/20/4
f 24/51/19 21/52/25 22/9/8 23/12/11
f 21/37/25 26/40/28 25/47/7 22/50/8
f 26/41/28 28/44/16 27/5/4 25/8/7
f 24/51/19 6/45/18 7/46/26 21/52/25
f 2/53/29 4/54/29 3/55/29 1/56/29
