# Blender v2.93.6 OBJ File: 'untitled.blend'
# www.blender.org
o GraveStone2_Cube.086
v 0.310072 0.001995 0.249087
v 0.224702 0.479722 -0.177977
v 0.260534 0.293802 -0.208737
v 0.310072 0.001995 -0.282553
v 0.224702 0.479722 0.151076
v 0.260534 0.293802 0.175271
v 0.215558 0.944839 -0.177977
v 0.224234 0.528240 -0.177977
v 0.203185 0.933478 0.117722
v 0.211270 0.545236 0.117722
v 0.184131 0.915398 0.117722
v 0.190481 0.571653 0.117722
v 0.184131 0.915398 0.081955
v 0.190481 0.571653 0.081955
v 0.361474 0.001995 0.237358
v 0.350959 0.001995 0.249087
v 0.248930 0.984741 0.151076
v 0.259939 0.990846 0.140359
v 0.350959 0.283656 0.249087
v 0.361474 0.283656 0.237358
v 0.351913 0.294109 0.224156
v 0.340681 0.294112 0.237358
v 0.262537 0.479722 0.140184
v 0.251198 0.479722 0.151076
v 0.304063 0.293802 0.162844
v 0.292483 0.293802 0.175271
v 0.310072 0.283656 -0.282553
v 0.301891 0.294110 -0.270363
v 0.214360 1.015461 0.140380
v 0.214566 1.003295 0.151076
v 0.302201 0.294112 0.237358
v 0.310072 0.283656 0.249087
v 0.249566 0.937150 0.151076
v 0.260716 0.934629 0.140321
v 0.262911 0.527718 0.140265
v 0.251701 0.527869 0.151076
v 0.257066 0.462375 -0.208737
v 0.249541 0.472395 -0.201703
v 0.257066 0.462375 0.175271
v 0.249426 0.472429 0.169652
v 0.280020 0.472351 0.169852
v 0.288523 0.462375 0.175271
v 0.300045 0.462375 0.162994
v 0.291420 0.472371 0.157842
v 0.221500 0.948394 0.151076
v 0.213527 0.942974 0.145601
v 0.222106 0.531029 0.145602
v 0.230378 0.522053 0.151076
v 0.347956 0.001995 -0.282553
v 0.361474 0.001995 -0.268748
v 0.259939 0.990846 -0.165146
v 0.246933 0.983705 -0.177977
v 0.262537 0.479722 -0.164738
v 0.249118 0.479722 -0.177977
v 0.290397 0.293802 -0.208737
v 0.304063 0.293802 -0.194997
v 0.214602 1.001160 -0.177977
v 0.214360 1.015461 -0.165196
v 0.260716 0.934629 -0.165058
v 0.247541 0.937608 -0.177977
v 0.249658 0.527897 -0.177977
v 0.262911 0.527718 -0.164926
v 0.361474 0.283656 -0.268690
v 0.347909 0.283656 -0.282553
v 0.338297 0.294110 -0.270323
v 0.351950 0.294109 -0.256338
v 0.277686 0.472384 -0.201740
v 0.291391 0.472378 -0.188259
v 0.300045 0.462375 -0.195124
v 0.286375 0.462375 -0.208737
v -0.310072 0.001995 0.249087
v -0.224702 0.479722 -0.177977
v -0.260534 0.293802 -0.208737
v -0.310072 0.001995 -0.282553
v -0.224702 0.479722 0.151076
v -0.260534 0.293802 0.175271
v -0.215558 0.944839 -0.177977
v -0.224234 0.528240 -0.177977
v -0.203185 0.933478 0.117722
v -0.211270 0.545236 0.117722
v -0.184131 0.915398 0.117722
v -0.190481 0.571653 0.117722
v -0.184131 0.915398 0.081955
v -0.190481 0.571653 0.081955
v -0.361474 0.001995 0.237358
v -0.350959 0.001995 0.249087
v -0.248930 0.984741 0.151076
v -0.259939 0.990846 0.140359
v -0.350959 0.283656 0.249087
v -0.361474 0.283656 0.237358
v -0.351913 0.294109 0.224156
v -0.340681 0.294112 0.237358
v -0.262537 0.479722 0.140184
v -0.251198 0.479722 0.151076
v -0.304063 0.293802 0.162844
v -0.292483 0.293802 0.175271
v -0.310072 0.283656 -0.282553
v -0.301891 0.294110 -0.270363
v -0.214360 1.015461 0.140380
v -0.214566 1.003295 0.151076
v -0.302201 0.294112 0.237358
v -0.310072 0.283656 0.249087
v -0.249566 0.937150 0.151076
v -0.260716 0.934629 0.140321
v -0.262911 0.527718 0.140265
v -0.251701 0.527869 0.151076
v -0.257066 0.462375 -0.208737
v -0.249541 0.472395 -0.201703
v -0.257066 0.462375 0.175271
v -0.249426 0.472429 0.169652
v -0.280020 0.472351 0.169852
v -0.288523 0.462375 0.175271
v -0.300045 0.462375 0.162994
v -0.291420 0.472371 0.157842
v -0.221500 0.948394 0.151076
v -0.213527 0.942974 0.145601
v -0.222106 0.531029 0.145602
v -0.230378 0.522053 0.151076
v -0.347956 0.001995 -0.282553
v -0.361474 0.001995 -0.268748
v -0.259939 0.990846 -0.165146
v -0.246933 0.983705 -0.177977
v -0.262537 0.479722 -0.164738
v -0.249118 0.479722 -0.177977
v -0.290397 0.293802 -0.208737
v -0.304063 0.293802 -0.194997
v -0.214602 1.001160 -0.177977
v -0.214360 1.015461 -0.165196
v -0.260716 0.934629 -0.165058
v -0.247541 0.937608 -0.177977
v -0.249658 0.527897 -0.177977
v -0.262911 0.527718 -0.164926
v -0.361474 0.283656 -0.268690
v -0.347909 0.283656 -0.282553
v -0.338297 0.294110 -0.270323
v -0.351950 0.294109 -0.256338
v -0.277686 0.472384 -0.201740
v -0.291391 0.472378 -0.188259
v -0.300045 0.462375 -0.195124
v -0.286375 0.462375 -0.208737
vt 0.533820 0.532266
vt 0.533844 0.547987
vt 0.448424 0.547987
vt 0.448434 0.532266
vt 0.682770 0.309756
vt 0.682756 0.295272
vt 0.768197 0.295272
vt 0.768191 0.309756
vt 0.529092 0.571088
vt 0.514059 0.571625
vt 0.518516 0.563175
vt 0.530707 0.562102
vt 0.811986 0.748442
vt 0.737528 0.739968
vt 0.737071 0.729641
vt 0.813266 0.736072
vt 0.871963 0.993226
vt 0.824816 0.993261
vt 0.824816 0.893130
vt 0.871963 0.893171
vt 0.491287 0.566741
vt 0.494316 0.563902
vt 0.494174 0.696154
vt 0.491277 0.693344
vt 0.352127 0.622805
vt 0.306471 0.627496
vt 0.306567 0.619989
vt 0.351214 0.613966
vt 0.352127 0.776223
vt 0.305906 0.771488
vt 0.682756 0.175400
vt 0.768197 0.175400
vt 0.733324 0.738013
vt 0.715164 0.726289
vt 0.714667 0.717171
vt 0.732680 0.727666
vt 0.367183 0.846478
vt 0.353794 0.829327
vt 0.353796 0.729273
vt 0.367176 0.712130
vt 0.659882 0.565752
vt 0.659882 0.694337
vt 0.646050 0.694003
vt 0.646095 0.566042
vt 0.492389 0.702174
vt 0.376163 0.698155
vt 0.373418 0.690281
vt 0.569471 0.054968
vt 0.567419 0.051705
vt 0.711594 0.051180
vt 0.709569 0.054450
vt 0.717678 0.053962
vt 0.710358 0.060191
vt 0.702604 0.060230
vt 0.721768 0.056158
vt 0.714173 0.062960
vt 0.506294 0.565350
vt 0.506294 0.694741
vt 0.735831 0.558095
vt 0.813266 0.550999
vt 0.563011 0.005379
vt 0.715983 0.005379
vt 0.576520 0.060701
vt 0.646080 0.558851
vt 0.513256 0.687499
vt 0.507960 0.687923
vt 0.508703 0.571159
vt 0.533730 0.405070
vt 0.533783 0.418490
vt 0.448450 0.418490
vt 0.448473 0.405070
vt 0.459792 0.827845
vt 0.451557 0.824953
vt 0.451557 0.711330
vt 0.459792 0.708439
vt 0.449891 0.849948
vt 0.371137 0.849932
vt 0.371137 0.708439
vt 0.449891 0.708439
vt 0.809894 0.874559
vt 0.809894 0.998764
vt 0.801145 0.995734
vt 0.801145 0.877589
vt 0.481504 0.190832
vt 0.463689 0.201196
vt 0.464164 0.192722
vt 0.482072 0.181053
vt 0.725418 0.006290
vt 0.719645 0.051053
vt 0.486340 0.179198
vt 0.485982 0.188778
vt 0.363614 0.697075
vt 0.358931 0.688214
vt 0.821117 0.991341
vt 0.812792 0.984765
vt 0.812791 0.899508
vt 0.821124 0.894570
vt 0.562228 0.182322
vt 0.562228 0.367071
vt 0.484740 0.359934
vt 0.713650 0.571094
vt 0.731461 0.560140
vt 0.659770 0.558790
vt 0.506167 0.702263
vt 0.528403 0.688133
vt 0.353794 0.570457
vt 0.358301 0.570823
vt 0.354398 0.688563
vt 0.735891 0.744012
vt 0.730453 0.741857
vt 0.811502 0.752670
vt 0.711943 0.729870
vt 0.303011 0.629476
vt 0.303414 0.621973
vt 0.730022 0.006819
vt 0.724003 0.052426
vt 0.506098 0.706772
vt 0.492334 0.706616
vt 0.361233 0.700881
vt 0.376592 0.702579
vt 0.480286 0.357807
vt 0.462670 0.346991
vt 0.561072 0.170905
vt 0.302455 0.769479
vt 0.295276 0.762489
vt 0.295782 0.636351
vt 0.295881 0.629208
vt 0.375608 0.687561
vt 0.373093 0.568735
vt 0.375176 0.571418
vt 0.286865 0.096150
vt 0.286865 0.211357
vt 0.278531 0.208763
vt 0.278531 0.100185
vt 0.515672 0.558634
vt 0.646035 0.553585
vt 0.659695 0.553425
vt 0.531199 0.556836
vt 0.479115 0.176508
vt 0.484334 0.174270
vt 0.560406 0.165141
vt 0.460619 0.188526
vt 0.300881 0.617186
vt 0.304931 0.615036
vt 0.292435 0.624681
vt 0.350578 0.608708
vt 0.405659 0.002576
vt 0.408958 0.002576
vt 0.409220 0.048877
vt 0.405659 0.048877
vt 0.410135 0.003779
vt 0.410135 0.047856
vt 0.356140 0.533583
vt 0.441526 0.533583
vt 0.441537 0.549303
vt 0.356116 0.549303
vt 0.682770 0.160917
vt 0.768191 0.160917
vt 0.529941 0.697190
vt 0.517670 0.696000
vt 0.811850 0.538414
vt 0.736157 0.547673
vt 0.070557 0.890532
vt 0.070557 0.990586
vt 0.023409 0.990628
vt 0.023409 0.890497
vt 0.351192 0.785179
vt 0.305974 0.779047
vt 0.731936 0.549711
vt 0.713914 0.561920
vt 0.587531 0.170587
vt 0.587524 0.304936
vt 0.574145 0.287793
vt 0.574142 0.187739
vt 0.492573 0.557876
vt 0.375872 0.560807
vt 0.561312 0.054528
vt 0.568726 0.060746
vt 0.564904 0.063565
vt 0.557195 0.056765
vt 0.645999 0.701226
vt 0.356230 0.406387
vt 0.441488 0.406387
vt 0.441510 0.419807
vt 0.356178 0.419807
vt 0.670239 0.167117
vt 0.670239 0.308627
vt 0.591485 0.308627
vt 0.591485 0.167133
vt 0.480690 0.367665
vt 0.462929 0.355515
vt 0.553459 0.006308
vt 0.559317 0.051602
vt 0.484978 0.369601
vt 0.363109 0.561849
vt 0.019711 0.892416
vt 0.019718 0.989188
vt 0.011385 0.984250
vt 0.011386 0.898993
vt 0.659751 0.701333
vt 0.506247 0.557904
vt 0.728962 0.545878
vt 0.734442 0.543587
vt 0.811321 0.534115
vt 0.710585 0.558386
vt 0.302803 0.777029
vt 0.554917 0.053003
vt 0.548799 0.006846
vt 0.492559 0.553442
vt 0.506224 0.553425
vt 0.360707 0.557979
vt 0.376330 0.556339
vt 0.560947 0.378685
vt 0.295283 0.769674
vt 0.388869 0.185929
vt 0.380536 0.181894
vt 0.380536 0.073316
vt 0.388869 0.070722
vt 0.514776 0.700530
vt 0.645928 0.706520
vt 0.659658 0.706726
vt 0.530390 0.702494
vt 0.482875 0.374578
vt 0.477616 0.372207
vt 0.560218 0.384546
vt 0.459257 0.359661
vt 0.300215 0.781849
vt 0.304301 0.784049
vt 0.291763 0.774207
vt 0.350542 0.790506
vt 0.351650 0.002576
vt 0.351650 0.048877
vt 0.348089 0.048877
vt 0.348350 0.002576
vt 0.347173 0.047856
vt 0.347173 0.003779
vt 0.702021 0.876335
vt 0.798134 0.874559
vt 0.798134 0.981078
vt 0.702021 0.979303
vt 0.983283 0.407324
vt 0.983283 0.515902
vt 0.977851 0.510959
vt 0.977625 0.414830
vt 0.142688 0.778210
vt 0.142688 0.884728
vt 0.132687 0.884728
vt 0.132687 0.778210
vt 0.967851 0.510982
vt 0.967625 0.414853
vt 0.150074 0.772397
vt 0.150074 0.890541
vt 0.241114 0.930063
vt 0.241114 0.940064
vt 0.138146 0.940064
vt 0.138146 0.930063
vt 0.246442 0.925008
vt 0.132819 0.925008
vt 0.432992 0.182173
vt 0.427334 0.174667
vt 0.427560 0.078538
vt 0.432992 0.073595
vt 0.417334 0.174644
vt 0.417560 0.078515
vn 0.9224 0.0084 -0.3863
vn 0.7953 0.4786 -0.3722
vn 0.7940 0.4783 0.3751
vn 0.9207 0.0085 0.3902
vn 0.2178 0.8988 -0.3805
vn 0.2174 0.8974 0.3839
vn 0.0000 0.0000 -1.0000
vn 0.1167 0.3987 -0.9096
vn 0.3759 0.2354 -0.8963
vn 0.3794 0.0035 -0.9252
vn 0.4077 0.0000 0.9131
vn 0.3840 0.4225 0.8210
vn 0.0000 0.4090 0.9125
vn 0.0000 0.0000 1.0000
vn 0.9246 0.0219 -0.3803
vn 0.8494 0.3777 -0.3685
vn 0.8627 0.3642 0.3510
vn 0.9307 0.0220 0.3650
vn 0.4066 0.3838 0.8291
vn 0.0738 0.0742 0.9945
vn -0.0738 0.0742 0.9945
vn -0.4066 0.3838 0.8291
vn -0.0001 0.3009 -0.9537
vn 0.3765 0.3597 -0.8537
vn 0.3877 0.0091 -0.9217
vn 0.0001 0.3009 -0.9537
vn -0.2178 0.8988 -0.3805
vn -0.2174 0.8974 0.3839
vn 0.1232 0.9259 0.3571
vn -0.0013 1.0000 -0.0040
vn 0.0000 1.0000 -0.0050
vn 0.0000 0.9353 0.3537
vn 0.4028 0.9098 -0.1005
vn -0.0051 1.0000 0.0010
vn -0.0052 1.0000 -0.0010
vn 0.4035 0.9108 0.0877
vn 0.3757 -0.0009 0.9267
vn 0.3755 0.0036 0.9268
vn -0.0977 -0.0904 0.9911
vn 0.0004 0.7531 0.6579
vn 0.0008 0.2496 0.9684
vn -0.0008 0.2496 0.9684
vn -0.0004 0.7531 0.6579
vn 0.1843 0.7972 0.5749
vn 0.0535 0.9544 0.2938
vn 0.0000 0.9308 0.3654
vn 0.4972 0.8477 0.1850
vn 0.2039 0.9764 0.0710
vn 0.3807 -0.0012 -0.9247
vn -0.1167 0.3987 -0.9096
vn 0.9225 -0.0086 -0.3859
vn 0.9225 -0.0019 -0.3861
vn 0.9205 -0.0016 0.3908
vn 0.9200 -0.0080 0.3918
vn 0.4159 -0.5149 0.7496
vn 0.0000 -0.9466 0.3224
vn -0.4159 -0.5149 0.7496
vn 0.9259 0.0001 -0.3778
vn 0.8343 0.4113 -0.3671
vn 0.8411 0.4143 0.3479
vn 0.9340 -0.0000 0.3574
vn 0.0000 0.8910 0.4540
vn 0.0001 0.9387 -0.3447
vn 0.0000 1.0000 0.0050
vn -0.0012 1.0000 0.0040
vn 0.1166 0.9288 -0.3516
vn 0.4031 0.0094 0.9151
vn 0.4001 0.3315 0.8544
vn 0.3626 0.4233 -0.8303
vn 0.0001 0.4180 -0.9084
vn 0.3724 0.2329 0.8984
vn 0.1156 0.3947 0.9115
vn 0.4846 0.8571 -0.1750
vn 0.2003 0.9779 -0.0596
vn -0.0001 0.4180 -0.9084
vn 0.3770 -0.0043 -0.9262
vn 0.3717 -0.0037 0.9284
vn -0.1156 0.3947 0.9115
vn -0.0001 0.8085 -0.5885
vn 0.1658 0.8344 -0.5256
vn -0.0001 0.9387 -0.3447
vn 0.3876 0.0001 -0.9218
vn 0.0001 0.8085 -0.5885
vn 0.0000 0.9555 -0.2950
vn 0.0520 0.9701 -0.2371
vn 0.0977 -0.0904 0.9911
vn -0.9352 -0.0195 0.3536
vn 0.0000 -1.0000 0.0000
vn -0.9224 0.0084 -0.3863
vn -0.9207 0.0085 0.3902
vn -0.7940 0.4783 0.3751
vn -0.7953 0.4786 -0.3722
vn -0.3794 0.0035 -0.9252
vn -0.3759 0.2354 -0.8963
vn -0.4077 0.0000 0.9131
vn -0.3840 0.4225 0.8210
vn -0.9246 0.0219 -0.3803
vn -0.9307 0.0220 0.3650
vn -0.8627 0.3642 0.3510
vn -0.8494 0.3777 -0.3685
vn -0.3877 0.0091 -0.9217
vn -0.3765 0.3597 -0.8537
vn -0.1232 0.9259 0.3571
vn 0.0013 1.0000 -0.0040
vn -0.4028 0.9098 -0.1005
vn -0.4035 0.9108 0.0877
vn 0.0052 1.0000 -0.0010
vn 0.0051 1.0000 0.0010
vn -0.3757 -0.0009 0.9267
vn -0.3755 0.0036 0.9268
vn -0.1843 0.7972 0.5749
vn -0.0535 0.9544 0.2938
vn -0.2039 0.9764 0.0710
vn -0.4972 0.8477 0.1850
vn -0.3807 -0.0012 -0.9247
vn -0.9225 -0.0086 -0.3859
vn -0.9200 -0.0080 0.3918
vn -0.9205 -0.0016 0.3908
vn -0.9225 -0.0019 -0.3861
vn -0.9259 0.0001 -0.3778
vn -0.9340 -0.0000 0.3574
vn -0.8411 0.4143 0.3479
vn -0.8343 0.4113 -0.3671
vn -0.1166 0.9288 -0.3516
vn 0.0012 1.0000 0.0040
vn -0.4031 0.0094 0.9151
vn -0.4001 0.3315 0.8544
vn -0.3626 0.4233 -0.8303
vn -0.3724 0.2329 0.8984
vn -0.4846 0.8571 -0.1750
vn -0.2003 0.9779 -0.0596
vn -0.3770 -0.0043 -0.9262
vn -0.3717 -0.0037 0.9284
vn -0.1658 0.8344 -0.5256
vn -0.3876 0.0001 -0.9218
vn -0.0520 0.9701 -0.2371
vn 0.9352 -0.0195 0.3536
vn 0.0000 1.0000 0.0000
vn -0.9998 -0.0185 0.0000
vn 0.9998 -0.0185 0.0000
s 1
f 59/1/1 51/2/2 18/3/3 34/4/4
f 51/5/2 58/6/5 29/7/6 18/8/3
f 7/9/7 57/10/8 52/11/9 60/12/10
f 16/13/11 19/14/12 32/15/13 1/16/14
f 56/17/15 69/18/16 43/19/17 25/20/18
f 117/21/19 118/22/20 48/23/21 47/24/22
f 3/25/7 37/26/23 70/27/24 55/28/25
f 3/25/7 73/29/7 107/30/26 37/26/23
f 58/6/5 128/31/27 99/32/28 29/7/6
f 22/33/29 26/34/30 6/35/31 31/36/32
f 66/37/33 56/38/34 25/39/35 21/40/36
f 2/41/7 72/42/7 78/43/7 8/44/7
f 36/45/37 33/46/38 45/47/39 48/23/21
f 110/48/40 109/49/41 39/50/42 40/51/43
f 41/52/44 24/53/45 5/54/46 40/51/43
f 24/53/45 41/52/44 44/55/47 23/56/48
f 118/22/20 75/57/14 5/58/14 48/23/21
f 102/59/13 71/60/14 1/16/14 32/15/13
f 109/49/41 76/61/14 6/62/14 39/50/42
f 75/63/46 110/48/40 40/51/43 5/54/46
f 8/44/7 7/9/7 60/12/10 61/64/49
f 57/10/8 127/65/50 128/66/27 58/67/5
f 53/68/51 62/69/52 35/70/53 23/71/54
f 116/72/55 79/73/56 9/74/56 46/75/57
f 50/76/58 63/77/59 20/78/60 15/79/61
f 117/80/19 47/81/22 10/82/62 80/83/62
f 28/84/63 3/85/64 55/86/65 65/87/66
f 26/88/67 42/89/68 39/50/42 6/62/14
f 28/84/63 65/87/66 64/90/69 27/91/70
f 33/46/38 17/92/71 30/93/72 45/47/39
f 62/69/52 59/1/1 34/4/4 35/70/53
f 68/94/73 53/95/74 23/96/48 44/97/47
f 4/98/7 74/99/7 97/100/75 27/91/70
f 76/101/31 101/102/32 31/36/32 6/35/31
f 2/41/7 8/44/7 61/64/49 54/103/76
f 24/104/77 36/45/37 48/23/21 5/58/14
f 8/44/7 78/43/7 77/105/7 7/9/7
f 99/106/28 100/107/78 30/93/72 29/108/6
f 19/14/12 20/109/60 21/110/36 22/33/29
f 19/14/12 16/13/11 15/111/61 20/109/60
f 26/34/30 22/33/29 21/110/36 25/112/35
f 38/113/79 67/114/80 70/27/24 37/26/23
f 66/37/33 21/40/36 20/78/60 63/77/59
f 42/89/68 26/88/67 25/115/18 43/116/17
f 36/45/37 24/104/77 23/117/54 35/118/53
f 18/119/3 29/108/6 30/93/72 17/92/71
f 22/33/29 31/36/32 32/15/13 19/14/12
f 17/92/71 33/46/38 34/120/4 18/119/3
f 33/46/38 36/45/37 35/118/53 34/120/4
f 101/102/32 102/59/13 32/15/13 31/36/32
f 27/91/70 97/100/75 98/121/81 28/84/63
f 28/84/63 98/121/81 73/122/64 3/85/64
f 4/98/7 27/91/70 64/90/69 49/123/82
f 43/19/17 69/18/16 68/94/73 44/97/47
f 37/26/23 107/30/26 108/124/83 38/113/79
f 38/113/79 108/124/83 72/125/84 2/126/84
f 42/89/68 43/116/17 44/55/47 41/52/44
f 39/50/42 42/89/68 41/52/44 40/51/43
f 38/113/79 2/126/84 54/127/85 67/114/80
f 46/128/57 47/24/22 48/23/21 45/47/39
f 115/129/86 116/130/55 46/128/57 45/47/39
f 100/107/78 115/129/86 45/47/39 30/93/72
f 47/131/22 46/132/57 9/133/87 10/134/87
f 58/67/5 51/135/2 52/11/9 57/10/8
f 62/136/52 53/137/51 54/103/76 61/64/49
f 51/135/2 59/138/1 60/12/10 52/11/9
f 59/138/1 62/136/52 61/64/49 60/12/10
f 7/9/7 77/105/7 127/65/50 57/10/8
f 64/90/69 65/87/66 66/139/33 63/140/59
f 49/123/82 64/90/69 63/140/59 50/141/58
f 65/87/66 55/86/65 56/142/34 66/139/33
f 68/143/73 69/144/16 70/27/24 67/114/80
f 67/114/80 54/127/85 53/145/74 68/143/73
f 69/144/16 56/146/15 55/28/25 70/27/24
f 4/147/88 49/148/88 16/149/88 1/150/88
f 16/149/88 49/148/88 50/151/88 15/152/88
f 129/153/89 104/154/90 88/155/91 121/156/92
f 121/157/92 88/158/91 99/32/28 128/31/27
f 77/105/7 130/159/93 122/160/94 127/65/50
f 86/161/95 71/60/14 102/59/13 89/162/96
f 126/163/97 95/164/98 113/165/99 139/166/100
f 73/29/7 125/167/101 140/168/102 107/30/26
f 92/169/103 101/102/32 76/101/31 96/170/104
f 136/171/105 91/172/106 95/173/107 126/174/108
f 106/175/109 118/22/20 115/129/86 103/176/110
f 111/177/111 110/48/40 75/63/46 94/178/112
f 94/178/112 93/179/113 114/180/114 111/177/111
f 78/43/7 131/181/115 130/159/93 77/105/7
f 123/182/116 93/183/117 105/184/118 132/185/119
f 120/186/120 85/187/121 90/188/122 133/189/123
f 98/121/81 135/190/124 125/191/125 73/122/64
f 96/192/126 76/61/14 109/49/41 112/193/127
f 98/121/81 97/100/75 134/194/128 135/190/124
f 103/176/110 115/129/86 100/107/78 87/195/129
f 132/185/119 105/184/118 104/154/90 129/153/89
f 138/196/130 114/197/114 93/198/113 123/199/131
f 72/42/7 124/200/132 131/181/115 78/43/7
f 94/201/133 75/57/14 118/22/20 106/175/109
f 89/162/96 92/169/103 91/202/106 90/203/122
f 89/162/96 90/203/122 85/204/121 86/161/95
f 96/170/104 95/205/107 91/202/106 92/169/103
f 108/124/83 107/30/26 140/168/102 137/206/134
f 136/171/105 133/189/123 90/188/122 91/172/106
f 112/193/127 113/207/99 95/208/98 96/192/126
f 106/175/109 105/209/118 93/210/117 94/201/133
f 88/211/91 87/195/129 100/107/78 99/106/28
f 92/169/103 89/162/96 102/59/13 101/102/32
f 87/195/129 88/211/91 104/212/90 103/176/110
f 103/176/110 104/212/90 105/209/118 106/175/109
f 74/99/7 119/213/135 134/194/128 97/100/75
f 113/165/99 114/197/114 138/196/130 139/166/100
f 112/193/127 111/177/111 114/180/114 113/207/99
f 109/49/41 110/48/40 111/177/111 112/193/127
f 108/124/83 137/206/134 124/214/136 72/125/84
f 116/130/55 115/129/86 118/22/20 117/21/19
f 117/215/19 80/216/137 79/217/137 116/218/55
f 128/66/27 127/65/50 122/160/94 121/219/92
f 132/220/119 131/181/115 124/200/132 123/221/116
f 121/219/92 122/160/94 130/159/93 129/222/89
f 129/222/89 130/159/93 131/181/115 132/220/119
f 134/194/128 133/223/123 136/224/105 135/190/124
f 119/213/135 120/225/120 133/223/123 134/194/128
f 135/190/124 136/224/105 126/226/108 125/191/125
f 138/227/130 137/206/134 140/168/102 139/228/100
f 137/206/134 138/227/130 123/229/131 124/214/136
f 139/228/100 140/168/102 125/167/101 126/230/97
f 74/231/88 71/232/88 86/233/88 119/234/88
f 86/233/88 85/235/88 120/236/88 119/234/88
f 74/231/88 4/147/88 1/150/88 71/232/88
s 2
f 83/237/14 84/238/14 14/239/14 13/240/14
f 10/241/14 9/242/14 11/243/14 12/244/14
f 82/245/138 12/246/138 14/247/138 84/248/138
f 12/244/139 11/243/139 13/249/139 14/250/139
f 80/251/14 10/252/14 12/246/14 82/245/14
f 81/253/88 83/254/88 13/255/88 11/256/88
f 79/257/14 81/253/14 11/256/14 9/258/14
f 80/259/14 82/260/14 81/261/14 79/262/14
f 82/260/140 84/263/140 83/264/140 81/261/140
