# Alias OBJ Model File
# Exported from SketchUp, (c) 2000-2012 Trimble Navigation Limited
# File units = inches

mtllib steelBlockade.mtl

g Mesh1 Group1 Model

usemtl _Gray_
v 23.3348 29.8159 -3.21105
vt 4.52756 0
vn 0.294459 0.778955 0.553645
v 23.1307 31.8335 -7.09934
vt 4.52756 4.52756
v 18.883 33.593 -6.32781
vt 0 4.52756
v 19.0871 31.5755 -2.43952
vt 0 0
f 1/1/1 2/2/1 3/3/1 4/4/1 

v 12.15 0.227896 -24.2409
vn 0.911135 -0.377418 -0.165494
v 11.9459 2.2454 -28.1291
vt 4.52756 43.5433
vt 0 43.5433
f 5/4/2 6/1/2 2/5/2 1/6/2 

vt -4.52756 4.52756
vn -0.294459 -0.778955 -0.553645
vt -4.52756 0
v 7.90224 1.98742 -23.4693
v 7.69819 4.00492 -27.3576
f 6/7/3 5/8/3 7/4/3 8/3/3 

vn 0.0465314 -0.460061 0.886667
f 7/4/4 5/1/4 1/5/4 4/6/4 

vn -0.911135 0.377418 0.165494
vt -4.52756 43.5433
f 8/8/5 7/4/5 4/6/5 3/9/5 

vn -0.0465314 0.460061 -0.886667
f 6/8/6 8/4/6 3/6/6 2/9/6 

g Mesh2 Group2 Model

v 15.5541 1.29342 -3.53838
vn -0.0631189 -0.725906 0.684892
v 15.7619 3.68334 -2.84217e-14
v 11.2625 4.33438 -2.84217e-14
v 11.0547 1.94446 -3.53838
f 9/1/7 10/2/7 11/3/7 12/4/7 

v 18.0576 30.086 -30.7042
vn 0.989693 -0.143205 -0
v 18.2654 32.4759 -27.1658
f 13/4/8 14/1/8 10/5/8 9/6/8 

vn 0.0631189 0.725906 -0.684892
v 13.5583 30.737 -30.7042
v 13.7661 33.1269 -27.1658
f 14/7/9 13/8/9 15/4/9 16/3/9 

vn -0.0486109 -0.559055 -0.827705
f 15/4/10 13/1/10 9/5/10 12/6/10 

vn -0.989693 0.143205 0
f 16/8/11 15/4/11 12/6/11 11/9/11 

vn 0.0486109 0.559055 0.827705
f 14/8/12 16/4/12 11/6/12 10/9/12 

g Mesh3 Group3 Model

v 24.4929 0 -17.1296
vn 0.599511 -0.800367 4.14148e-16
v 28.217 1.88112 -17.1296
v 28.217 1.88112 -12.602
v 24.4929 0 -12.602
f 17/1/13 18/2/13 19/3/13 20/4/13 

v 1.99811e-15 32.6989 -17.1296
vn 4.41322e-16 -6.38578e-17 -1
v 3.72414 34.58 -17.1296
f 21/4/14 22/1/14 18/5/14 17/6/14 

vn -0.599511 0.800367 -4.14148e-16
v 0 32.6989 -12.602
v 3.72414 34.58 -12.602
f 22/7/15 21/8/15 23/4/15 24/3/15 

vn -0.892593 -0.450863 -7.52978e-17
f 23/4/16 21/1/16 17/5/16 20/6/16 

vn -4.41322e-16 6.38578e-17 1
f 24/8/17 23/4/17 20/6/17 19/9/17 

vn 0.892593 0.450863 7.52978e-17
f 22/8/18 24/4/18 19/6/18 18/9/18 

